HIERARCHY
ROOT Hips
{
	OFFSET -0.179506 -22.333345 2.821913
	CHANNELS 6 Xposition Yposition Zposition Zrotation Yrotation Xrotation 
	JOINT LeftUpLeg
	{
		OFFSET 6.951974 -9.140623 -0.681533
		CHANNELS 3 Zrotation Yrotation Xrotation
		JOINT LeftLeg
		{
			OFFSET 3.427654 -37.519855 -0.449580
			CHANNELS 3 Zrotation Yrotation Xrotation
			JOINT LeftFoot
			{
				OFFSET -1.359570 -39.796059 -4.369333
				CHANNELS 3 Zrotation Yrotation Xrotation
				JOINT LeftToe
				{
					OFFSET 2.635814 -5.579078 11.928840
					CHANNELS 3 Zrotation Yrotation Xrotation
					End Site
					{
						OFFSET 0.000000 0.000000 0.000000
					}
				}
			}
		}
	}
	JOINT RightUpLeg
	{
		OFFSET -6.767048 -9.052170 -0.431982
		CHANNELS 3 Zrotation Yrotation Xrotation
		JOINT RightLeg
		{
			OFFSET -3.829005 -38.256897 -0.885003
			CHANNELS 3 Zrotation Yrotation Xrotation
			JOINT RightFoot
			{
				OFFSET 1.577377 -39.841461 -4.231180
				CHANNELS 3 Zrotation Yrotation Xrotation
				JOINT RightToe
				{
					OFFSET -2.537174 -4.814398 12.334795
					CHANNELS 3 Zrotation Yrotation Xrotation
					End Site
					{
						OFFSET 0.000000 0.000000 0.000000
					}
				}
			}
		}
	}
	JOINT Spine
	{
		OFFSET -0.253288 10.896323 -2.669631
		CHANNELS 3 Zrotation Yrotation Xrotation
		JOINT Spine1
		{
			OFFSET 0.548704 13.518043 0.109247
			CHANNELS 3 Zrotation Yrotation Xrotation
			JOINT Spine2
			{
				OFFSET 0.145701 5.292222 2.542457
				CHANNELS 3 Zrotation Yrotation Xrotation
				JOINT Neck
				{
					OFFSET -0.277840 21.387037 -4.285703
					CHANNELS 3 Zrotation Yrotation Xrotation
					JOINT Head
					{
						OFFSET 0.515184 6.496960 5.134897
						CHANNELS 3 Zrotation Yrotation Xrotation
						End Site
						{
							OFFSET 0.000000 0.000000 0.000000
						}
					}
				}
				JOINT LeftShoulder
				{
					OFFSET 7.884473 12.174932 -3.408961
					CHANNELS 3 Zrotation Yrotation Xrotation
					JOINT LeftArm
					{
						OFFSET 9.097692 3.046888 -0.886815
						CHANNELS 3 Zrotation Yrotation Xrotation
						JOINT LeftForeArm
						{
							OFFSET 25.961220 -1.277207 -2.745643
							CHANNELS 3 Zrotation Yrotation Xrotation
							JOINT LeftHand
							{
								OFFSET 24.923361 0.898606 -0.117091
								CHANNELS 3 Zrotation Yrotation Xrotation
								End Site
								{
									OFFSET 0.000000 0.000000 0.000000
								}
							}
						}
					}
				}
				JOINT RightShoulder
				{
					OFFSET -8.175920 11.883285 -3.861528
					CHANNELS 3 Zrotation Yrotation Xrotation
					JOINT RightArm
					{
						OFFSET -9.601238 3.255117 -0.914307
						CHANNELS 3 Zrotation Yrotation Xrotation
						JOINT RightForeArm
						{
							OFFSET -25.374195 -1.332924 -2.140099
							CHANNELS 3 Zrotation Yrotation Xrotation
							JOINT RightHand
							{
								OFFSET -25.529810 0.777228 -0.555919
								CHANNELS 3 Zrotation Yrotation Xrotation
								End Site
								{
									OFFSET 0.000000 0.000000 0.000000
								}
							}
						}
					}
				}
			}
		}
	}
}
MOTION
Frames: 6
Frame Time: 0.033333
117.727448 55.770905 87.050110 175.361555 2.002717 90.351587 23.527414 15.721326 -51.484068 -9.381368 15.462187 95.245560 -1.439741 2.929779 -6.779690 nan nan nan -23.129026 -15.176116 -29.835586 8.323373 -8.065128 54.495879 10.675211 2.985243 -12.238710 nan nan nan 6.024382 0.034337 44.022085 4.837997 -1.126612 7.815872 2.745534 1.494587 -2.035228 -5.156082 -3.335750 -9.566454 -3.479288 -1.514005 -15.084794 -28.124694 0.638647 10.102912 -50.703096 22.447455 -3.488896 -0.800207 -10.548865 16.792354 1.488903 -9.209189 -12.768424 22.947195 20.900820 7.912922 9.515086 18.425197 -20.366207 -6.069498 18.151828 -14.745340 -6.428431 12.151576 -1.427219 
119.356613 55.589214 87.624443 175.372176 2.698838 90.534563 20.834260 14.817779 -52.161532 -9.501412 16.647957 93.496495 -1.533593 1.572301 -6.741887 nan nan nan -21.470696 -15.184094 -29.652256 8.260366 -8.531411 53.945346 10.507710 3.615451 -11.599301 nan nan nan 6.714306 0.297766 44.773228 5.013214 -1.323576 7.857900 2.967784 1.602947 -2.179174 -4.826907 -3.411949 -10.037934 -3.838056 -1.519798 -15.030767 -28.507404 -0.791296 10.074669 -52.654511 21.987062 -2.641575 -0.645395 -10.791348 17.208366 0.181023 -9.719453 -11.326362 22.594230 22.368177 7.696655 9.423665 19.941178 -21.083519 -6.943317 18.679616 -15.769098 -6.400990 12.123475 -1.978553 
120.947899 55.389526 88.230476 175.442843 3.319476 90.872811 18.259038 13.651863 -52.608783 -9.654870 17.944256 90.866242 -1.232753 0.427990 -6.412795 nan nan nan -19.851455 -15.394052 -29.631474 8.319872 -9.093917 53.334535 10.287631 3.824445 -10.930962 nan nan nan 7.321874 0.595794 45.311308 5.154596 -1.409681 7.717940 3.179467 1.693781 -2.034093 -4.458960 -3.435254 -10.725648 -4.030777 -1.509901 -14.878171 -28.593452 -2.066859 10.039187 -54.385618 21.185279 -1.520658 -0.676743 -11.354484 17.826370 -0.511823 -10.160544 -10.668519 22.044011 23.561662 7.418294 9.704857 21.473258 -21.208122 -7.812313 19.419593 -17.081980 -6.380362 12.156789 -3.339908 
122.471100 55.202641 88.887230 175.555055 3.768195 91.503874 15.646432 12.272149 -52.939808 -9.800881 19.270247 87.337861 -0.869443 -0.642574 -5.806578 nan nan nan -18.499764 -15.611650 -30.012330 8.152584 -10.054997 52.883300 10.566220 4.240909 -9.693871 nan nan nan 7.882246 0.584430 45.896618 4.899804 -1.421582 7.005306 3.226166 2.005518 -1.919855 -4.263316 -3.875146 -10.867654 -3.667729 -1.183364 -15.103400 -28.546413 -3.232465 9.907094 -55.609576 20.567020 -0.637767 -0.908021 -12.093568 18.446449 -1.367726 -10.829823 -9.424788 20.948791 24.735955 7.655786 11.291644 22.436735 -21.183115 -9.096649 20.883975 -19.062735 -6.417234 12.277163 -4.686715 
123.938637 54.982246 89.535019 175.496739 4.084237 92.389662 13.129669 10.806151 -53.150625 -10.121841 20.559077 82.927577 -0.923542 -1.423178 -4.840680 nan nan nan -17.411015 -15.657021 -31.059354 7.741812 -11.262315 52.933399 11.575928 5.136074 -7.691284 nan nan nan 8.212953 0.704318 46.271383 4.631837 -1.285615 6.036152 3.296275 2.213380 -1.701128 -3.851704 -4.080528 -10.897850 -3.612020 -1.077835 -15.187546 -28.319184 -3.963392 9.631261 -56.719513 19.785128 0.511197 -1.073730 -12.905561 19.263875 -2.198725 -11.641642 -7.971618 19.980937 25.464295 7.487803 12.716325 23.789218 -20.581497 -9.780790 22.085816 -20.146736 -6.197779 12.487347 -5.873636 
125.350014 54.748463 90.164352 175.195779 4.282234 93.352880 10.716945 9.363121 -53.075134 -10.653721 21.553183 77.752978 -1.225704 -1.979354 -3.599265 nan nan nan -16.598404 -15.534851 -32.602904 6.976793 -12.713878 53.508560 13.045016 6.408222 -4.957969 nan nan nan 8.301164 0.932208 46.493108 4.330037 -0.977358 5.053315 3.342186 2.359852 -1.346236 -3.289298 -3.977748 -11.188861 -3.652920 -1.258123 -14.961985 -27.886209 -4.428955 9.186192 -57.793359 18.932443 1.857984 -1.108227 -13.883763 19.937588 -2.938061 -12.396242 -6.620062 18.963399 25.862262 6.911462 14.085404 25.451958 -19.508086 -9.865732 23.039818 -20.377826 -5.585715 12.851457 -6.994366 
